<?xml version="1.0" encoding="utf-8"?>
<!-- Generator: Adobe Illustrator 21.0.2, SVG Export Plug-In . SVG Version: 6.00 Build 0)  -->
<svg version="1.1" id="图层_1" xmlns="http://www.w3.org/2000/svg" xmlns:xlink="http://www.w3.org/1999/xlink" x="0px" y="0px"
	 viewBox="0 0 129 50" style="enable-background:new 0 0 129 50;" xml:space="preserve">
<style type="text/css">
	.st0{fill:#0082FF;}
	.st1{fill:#FF0000;}
	.st2{fill:#FFFFFF;}
</style>
<g>
	<path class="st0" d="M11.4,38.4c-2.1,0.6-4.8,0.9-7.1-0.9c-1.5-1.1-2.8-3.1-2.9-6.6c-0.1-9.1,8.5-17.2,13.3-18.8
		c2.4-0.8,4.3-0.8,5.7,0.3c1.2,0.9,1.9,1.9,2.2,3c0.4,1.2,0.3,2.3-0.3,3.7c-0.5,1.1-1.2,2.9-1.7,4.1c-0.1,0.3-0.4,0.6-0.9,0.2
		c-1-0.7-1.7-1.9-1.1-4s2.1-4.5,1.2-5.4c-1.4-1.4-8.3,2.3-12.3,8.4c-4,6-3.8,12.5-2.1,14.1c2.3,2.2,7.3-1,9.9-6.2
		c-1.4,0.3-2.7,0.5-3.7,0.6c-2.1,0.2-3.4-0.7-4.1-2c-0.2-0.4-0.1-0.7,0.4-0.7c3.3,0,6.6-1.1,9.1-1.1c2.1,0,3.3,0.9,3.9,2.2
		c0.2,0.5,0.1,0.8-0.4,0.7c-0.8-0.1-1.9,0-3,0.1C18.7,34,13.5,37.8,11.4,38.4z"/>
	<path class="st0" d="M33.8,12c0.6,1.2,0.6,3.3-1.3,6.5c-2.6,4.6-7.3,12.9-10.4,19.8c-0.2,0.4-0.3,0.5-0.7,0.1
		c-0.6-0.6-1.1-2.1-0.2-4.7c2.1-5.8,8.1-16.8,11.5-21.7C33.2,11.4,33.6,11.5,33.8,12z"/>
	<path class="st0" d="M36.5,13.6c-0.1-0.3,0-0.5,0.5-0.5c3.5,0.2,8-1.1,10.4-1.1c1.8,0,2.9,0.9,3.5,2.2c0.1,0.3,0,0.6-0.5,0.6
		c-3.2,0-6.2,0.8-8.8,1.2c-1.5,2.4-3.5,5.9-5.6,9.7c1.1-0.2,2.1-0.3,2.9-0.3c2.1-0.1,3.2,0.8,3.6,2c0.1,0.4,0,0.6-0.5,0.6
		c-2.1,0-5.4,0.6-7.8,1.2c-1.6,3.1-3.2,6.3-4.4,9.2c-0.2,0.4-0.4,0.4-0.7,0.2c-0.8-0.7-1.2-2-0.3-4.7c1.3-3.7,5.7-12.1,9.5-18.2
		C37.2,15.3,36.7,14.5,36.5,13.6z"/>
	<path class="st1" d="M52,13.6c-0.1-0.3,0-0.5,0.5-0.5c3.5,0.2,8-1.1,10.4-1.1c1.8,0,2.9,0.9,3.5,2.2c0.1,0.3,0,0.6-0.5,0.6
		c-3.2,0-6.2,0.8-8.8,1.2c-1.5,2.4-3.5,5.9-5.6,9.7c1.1-0.2,2.1-0.3,2.9-0.3c2.1-0.1,3.2,0.8,3.6,2c0.1,0.4,0,0.6-0.5,0.6
		c-2.1,0-5.4,0.6-7.8,1.2c-1.6,3.1-3.2,6.3-4.4,9.2c-0.2,0.4-0.4,0.4-0.7,0.2c-0.8-0.7-1.2-2-0.3-4.7c1.3-3.7,5.7-12.1,9.5-18.2
		C52.7,15.3,52.2,14.5,52,13.6z"/>
	<path class="st1" d="M80.3,29.3c-3.4,6.3-8.8,11.3-14.6,9.2c-3.5-1.3-4.9-4.5-4.9-8c0-9.1,8-16.9,12.8-18.6
		c2.5-0.9,4.6-0.4,5.8,0.9C84.7,15.1,83.5,23.5,80.3,29.3z M78.5,13.8c-2.1-0.8-7.5,2.1-11.5,8.3c-4.1,6.3-4.2,13.5-1.3,14.8
		c2.8,1.2,7.8-2.2,11.4-8.8C81.1,21,80.9,14.7,78.5,13.8z"/>
	<path class="st1" d="M100.2,12.1c0.5-0.5,0.9-0.3,1,0.3c0.3,1.2-0.2,3.4-2.8,5.9c-2,1.9-4.6,4.4-7.4,7.1c0.7,4.9,1.6,10.1,3.1,12.6
		c0.3,0.5,0.1,0.8-0.4,0.8c-1.7-0.1-3.4-1.2-4.4-5.4c-0.4-1.7-0.7-3.4-1-5.2c-3.4,3.5-6.8,7.2-9.1,10.4c-0.3,0.3-0.6,0.3-0.7-0.1
		c-0.4-0.9-0.4-2.4,0.9-4.5c1.1-1.8,4.5-5.5,8.2-9.5c-0.6-4.1-1.2-8.3-2.1-12c-0.1-0.4,0.1-0.7,0.6-0.6c1.1,0.2,2.5,1,3.3,3.8
		c0.3,1.2,0.7,3.4,1.1,6C94.2,17.9,97.9,14.2,100.2,12.1z"/>
</g>
<path class="st0" d="M116,40.3h-10.6V9.1H116c1.2,0,2.1,1,2.1,2.1v27C118.1,39.4,117.2,40.3,116,40.3z"/>
<g>
	<path class="st2" d="M111,11.5c-0.2,0.1-0.4,0.1-0.6,0.3c0,0,0,0,0,0c0.1,0.1,0.1,0.1,0.1,0.2c0,0.1,0,0.2,0,0.4c0,0.1,0,0.4,0,0.9
		c0.1,0,0.2,0,0.3,0c0.1,0,0.2,0,0.3,0c0.1,0,0.2,0.1,0.2,0.1c0,0.1,0,0.2,0,0.3c0,0.1,0,0.1-0.1,0.1c0,0-0.1,0-0.2,0
		c-0.1,0-0.2,0-0.2,0c-0.1,0-0.2,0-0.4,0v0.9l0.1,0.1c0.1,0.1,0.2,0.2,0.3,0.4c0.1,0.2,0.2,0.3,0.2,0.3l0.1,0.1c0,0,0,0,0,0
		c0,0.1,0,0.2,0,0.3c0,0.1-0.1,0.1-0.1,0.2c0,0-0.1,0-0.1,0c0,0,0,0-0.1-0.1c0-0.1-0.1-0.2-0.2-0.3c-0.1-0.1-0.2-0.3-0.3-0.4v2.2
		c0,0.5,0,0.8,0.1,1c0,0.1,0,0.3-0.1,0.4c0,0.1-0.1,0.2-0.2,0.2c-0.1,0-0.1,0-0.2-0.1c-0.1-0.1-0.1-0.6-0.1-1.5c0-0.7,0-1.4,0-2.2
		c-0.1,0.2-0.2,0.5-0.4,0.8c-0.2,0.4-0.3,0.7-0.3,1c0,0.1,0,0.1-0.1,0.1c0,0.1-0.1,0.1-0.2,0.1c-0.1,0-0.1,0-0.2-0.1
		c0-0.1-0.1-0.2-0.1-0.3c0,0,0-0.1,0-0.1c0,0,0.1-0.1,0.1-0.2c0.1-0.1,0.1-0.2,0.2-0.4c0.1-0.2,0.2-0.4,0.4-0.8
		c0.2-0.4,0.3-0.6,0.4-0.7c0,0,0,0,0,0c0-0.2,0-0.5,0-0.7c-0.3,0-0.5,0.1-0.8,0.2c-0.1,0.1-0.1,0.1-0.2,0.1c0,0-0.1-0.1-0.1-0.2
		c0-0.1-0.1-0.2-0.1-0.3c0,0,0-0.1,0-0.1c0.3-0.1,0.6-0.2,0.9-0.2l0.2,0c0-0.3,0-0.5,0-0.8c0-0.2,0-0.4,0-0.6
		c-0.1,0.1-0.3,0.2-0.4,0.3c-0.1,0.1-0.2,0.1-0.2,0.2c-0.1,0-0.1,0-0.2,0c-0.1,0-0.2-0.1-0.2-0.3c0-0.1,0-0.2,0.1-0.3
		c0.1,0,0.1,0,0.2-0.1c0.2-0.1,0.4-0.2,0.7-0.3c0.3-0.1,0.5-0.3,0.8-0.4c0.1,0,0.2-0.1,0.2-0.1c0.1,0.1,0.2,0.1,0.2,0.2
		c0,0.1,0,0.2,0,0.2C111.1,11.4,111.1,11.5,111,11.5z M111.5,14.8C111.5,14.8,111.5,14.8,111.5,14.8c0.1,0,0.1,0,0.2,0
		c0,0,0.4,0,1.1-0.1c0.7-0.1,1.1-0.1,1.2-0.1c0.1,0,0.2-0.1,0.3-0.1c0.1,0,0.1,0,0.1,0c0,0,0.1,0.1,0.1,0.1c0,0,0.1,0.1,0.1,0.2
		c0,0.1,0,0.1-0.1,0.2c0,0-0.1,0.1-0.1,0.1h-0.1c0,0-0.1,0-0.1,0c0,0-0.1,0-0.1,0c-0.2,0-0.5,0-0.9,0.1c0,0.1,0,0.3,0,0.6
		c0,0.2,0,0.4,0,0.5c0.3,0,0.6-0.1,0.6-0.1c0.1,0,0.2-0.1,0.2-0.1c0.1,0,0.1,0,0.1,0c0,0,0.1,0.1,0.1,0.1c0,0,0.1,0.1,0.1,0.2
		c0,0.1,0,0.1-0.1,0.2c0,0.1-0.1,0.1-0.1,0.1c0,0,0,0-0.1,0c0,0-0.1,0-0.1,0c0,0-0.1,0-0.1,0c-0.2,0-0.4,0-0.7,0.1c0,0.6,0,1,0,1.1
		c0,0,0,0.1,0,0.1c0,0,0,0,0,0.1c0.2,0,0.4,0,0.7,0c0.3,0,0.5,0,0.6,0.1c0.2,0.1,0.3,0.2,0.3,0.4c0,0.1,0,0.2-0.1,0.2
		c0,0-0.1,0-0.2-0.1c-0.1,0-0.3-0.1-0.7-0.1l-0.4,0c-0.6,0-1,0-1.3,0.1c-0.3,0.1-0.5,0.1-0.6,0.1c-0.2,0-0.3-0.1-0.4-0.3
		c0,0,0.1-0.1,0.3-0.1c0.4-0.1,0.9-0.2,1.5-0.2c0-0.2,0-0.6,0-1.3c-0.3,0-0.5,0.1-0.7,0.1c-0.2,0.1-0.3,0.1-0.4,0.1s-0.1,0-0.1-0.1
		c0,0-0.1-0.1-0.1-0.1c0,0,0-0.1,0-0.2c0-0.1,0-0.1,0.1-0.2l0,0c0,0,0,0,0.1,0c0,0,0.1,0,0.1,0c0,0,0.3,0,0.9-0.1h0
		c0-0.3,0-0.7,0-1.1v0c-0.3,0-0.5,0.1-0.7,0.1c-0.2,0.1-0.4,0.1-0.4,0.1s-0.1,0-0.1-0.1c0,0-0.1-0.1-0.1-0.1c0,0,0-0.1,0-0.1
		C111.4,14.9,111.4,14.9,111.5,14.8L111.5,14.8z M113.6,11.2c0.1,0,0.2,0,0.3,0.1c0.1,0.1,0.2,0.1,0.2,0.2c0.1,0.1,0.1,0.2,0.1,0.4
		c0,0.4,0,0.7-0.1,1c0,0.3-0.1,0.5-0.1,0.6c0,0,0,0.1,0,0.1c0,0.1,0,0.2-0.1,0.2c-0.1,0-0.1,0-0.2,0c-0.1,0-0.1,0-0.2,0
		c-0.1,0-0.4,0-0.7,0.1c-0.3,0-0.6,0.1-0.8,0.1c0,0-0.1,0-0.1,0c0,0,0,0.1,0,0.1c0,0-0.1,0.1-0.1,0.1c-0.1,0-0.1,0-0.2-0.1
		c0,0-0.1-0.1-0.1-0.1c-0.1-0.5-0.2-1.2-0.2-2.2c0,0,0-0.1,0-0.1c0,0,0-0.1,0-0.1c0,0,0-0.1,0-0.1c0,0,0.1,0,0.1,0
		c0.1,0,0.1,0,0.2,0.1c0,0,0,0,0,0C112.5,11.3,113.1,11.2,113.6,11.2z M112.4,13.4c0.2,0,0.4,0,0.6-0.1c0.3,0,0.5,0,0.5-0.1
		c0,0,0.1,0,0.2,0l0-0.1c0.1-0.4,0.1-0.8,0.1-1.2c0-0.2-0.1-0.3-0.3-0.3c-0.3,0-0.6,0-0.9,0.1s-0.5,0.2-0.6,0.2l-0.1,0.1
		c0,0.6,0,0.9,0,1.1c0,0.2,0,0.3,0.1,0.4L112.4,13.4z"/>
	<path class="st2" d="M112.4,21.4c0.7,0,1.1-0.1,1.2-0.1l0.3-0.1c0.1,0,0.1,0.1,0.2,0.1c0.1,0.1,0.2,0.2,0.2,0.3
		c0,0.1-0.1,0.2-0.2,0.2c-0.1,0-0.1,0-0.2,0c-0.1,0-0.1,0-0.2,0c-0.3,0-0.9,0-1.6,0.1c-0.8,0-1.4,0.1-1.9,0.2l-0.3,0.1
		c0,0-0.1,0-0.1,0l0,0.1c-0.2,2.2-0.4,4.1-0.4,5.8c0,0,0,0.1,0,0.1c0,0.1,0,0.1,0,0.1c0,0.1,0,0.1-0.1,0.1c-0.1,0-0.1,0-0.2-0.1
		c-0.1-0.1-0.1-0.1-0.1-0.2c0-0.1,0-0.2,0-0.4c0-1.2,0.1-3.1,0.3-5.5c0-0.3,0-0.4,0-0.5c0-0.2,0.1-0.3,0.2-0.3c0.1,0,0.1,0,0.2,0.1
		c0,0,0.1,0.1,0.1,0.1c0.4-0.1,0.8-0.1,1.1-0.1c0.2,0,0.5,0,0.7-0.1l0-0.1c-0.1-0.1-0.1-0.2-0.2-0.3c-0.1-0.1-0.1-0.1-0.2-0.1
		c-0.1,0-0.1-0.1-0.1-0.2c0-0.1,0-0.2,0.1-0.2c0-0.1,0.1-0.1,0.2-0.1c0.1,0,0.2,0.2,0.4,0.4c0.1,0.3,0.2,0.4,0.2,0.5
		C112.3,21.4,112.4,21.4,112.4,21.4z M112.2,28.1c0-0.1,0-0.2,0-0.5c0-0.5-0.1-1.2-0.2-2.1c0-0.1,0-0.1,0-0.2
		c-0.4,0.1-0.9,0.3-1.4,0.4c-0.1,0-0.2,0.1-0.2,0.1c-0.1,0.1-0.2,0.1-0.2,0.1c-0.2-0.1-0.2-0.2-0.2-0.5l0-0.1
		c0.7-0.3,1.4-0.5,2.1-0.6c0,0,0,0,0,0c-0.2-0.1-0.3-0.2-0.5-0.4c-0.1,0-0.1-0.1-0.2-0.1c-0.1,0-0.1-0.1-0.1-0.1
		c0-0.1-0.1-0.1-0.1-0.1c0-0.1,0-0.1,0.1-0.2c0-0.1,0.1-0.1,0.1-0.1c0,0,0.1,0,0.1,0.1c0,0,0.1,0.1,0.3,0.2c0.1,0.1,0.2,0.1,0.2,0.2
		c0.1,0,0.2-0.1,0.4-0.2c0.2-0.1,0.4-0.3,0.6-0.4c0.2-0.2,0.3-0.3,0.3-0.4c0-0.2-0.2-0.3-0.5-0.3c-0.4,0-0.8,0.1-1.3,0.3
		c-0.2,0.1-0.4,0.2-0.5,0.2c-0.1,0.1-0.2,0.1-0.2,0.1c-0.2,0-0.2-0.1-0.2-0.4V23c0.4-0.2,0.8-0.3,1.1-0.4c0.4-0.1,0.7-0.1,1.1-0.1
		c0.2,0,0.4,0.1,0.6,0.1c0.2,0.1,0.3,0.3,0.3,0.6c0,0.2-0.1,0.5-0.4,0.7c-0.2,0.3-0.5,0.5-0.7,0.6c0,0-0.1,0-0.1,0.1
		c0.1,0.1,0.1,0.1,0.1,0.1c0,0,0.1,0,0.1,0c0,0,0,0,0,0c0.3,0,0.6-0.1,0.8-0.1c0.1,0,0.2,0,0.4,0c0.1,0,0.2,0.1,0.3,0.2
		c0.1,0.1,0.1,0.3,0.1,0.4c0,0.3,0,0.5-0.1,0.7c-0.1,0.2-0.2,0.3-0.2,0.4c0,0.1-0.1,0.1-0.1,0.1c-0.1,0-0.1,0-0.2-0.1
		c-0.1-0.1-0.1-0.2-0.1-0.2c0,0,0,0,0-0.1c0,0,0,0,0.1-0.1c0.2-0.2,0.3-0.5,0.3-0.7c0-0.2-0.1-0.3-0.3-0.3c-0.4,0-0.8,0-1.1,0.1
		c0,0.2,0.1,0.5,0.1,0.9c0.1,0.5,0.1,1,0.1,1.4c0,0.6-0.2,1-0.5,1c-0.2,0-0.4-0.1-0.5-0.2c-0.1-0.1-0.2-0.3-0.2-0.4
		c0-0.1,0-0.2,0.1-0.2c0,0,0.1,0,0.1,0c0,0,0,0.1,0.1,0.1c0.1,0.2,0.2,0.2,0.3,0.2C112.2,28.2,112.2,28.1,112.2,28.1z"/>
	<path class="st2" d="M112,34.7c0,0.1,0,0.2-0.1,0.3c0,0.1-0.1,0.4-0.2,0.9c-0.1,0.4-0.3,0.8-0.6,1.2c-0.2,0.3-0.5,0.6-0.7,0.8
		c-0.2,0.2-0.4,0.3-0.5,0.3c-0.1,0-0.2-0.2-0.3-0.5c0,0,0.1,0,0.2,0c0,0,0.1-0.1,0.2-0.1c0.3-0.2,0.6-0.5,0.9-0.8
		c0.3-0.3,0.5-0.7,0.6-1.2c0.1-0.5,0.2-0.8,0.2-1.1c0-0.1,0-0.1,0.1-0.1c0.1,0,0.1,0,0.2,0.1c0.1,0.1,0.1,0.1,0.1,0.2
		C112.1,34.6,112.1,34.6,112,34.7z M110.2,35.6c0,0.2,0,0.3,0,0.3c0,0.1,0,0.1,0,0.1c0,0,0,0.1,0,0.1c0,0.1,0,0.2,0,0.3
		c0,0.1-0.1,0.1-0.2,0.1c-0.1,0-0.2-0.1-0.2-0.2c0-0.2-0.1-0.7-0.1-1.5c0-0.2,0-0.6,0-1c0,0,0-0.1,0-0.2c0-0.1,0-0.1,0-0.1
		c0-0.1,0.1-0.2,0.2-0.2c0.1,0,0.1,0,0.2,0.1c1.1-0.3,2.1-0.4,2.8-0.4c0.2,0,0.3,0,0.4,0.1c0.1,0.1,0.2,0.2,0.3,0.3
		c0.1,0.1,0.1,0.3,0.1,0.5c0,0.5,0,1.1,0,1.7c0,0.2,0,0.3,0,0.4c0,0.1,0,0.2,0,0.2c0,0.1-0.1,0.2-0.1,0.3c-0.1,0.1-0.1,0.1-0.2,0.1
		c0,0-0.1,0-0.1-0.1c-0.1-0.1-0.1-0.2-0.1-0.2c0,0,0-0.1,0.1-0.2c0,0,0-0.1,0-0.3c0-0.6,0-1.2,0-1.7c0-0.1,0-0.2-0.1-0.3
		c-0.1-0.1-0.2-0.2-0.4-0.2c-0.7,0-1.5,0.1-2.4,0.4c-0.2,0.1-0.3,0.1-0.3,0.1h0c0,0.4,0,0.7,0,0.8C110.2,35.1,110.2,35.3,110.2,35.6
		z M112.9,30.4c0.1,0,0.2,0,0.3,0.1c0.1,0.1,0.2,0.1,0.3,0.3c0.1,0.1,0.1,0.3,0.1,0.4c0,0.3,0,0.5-0.1,0.7c0,0.1,0,0.2-0.1,0.3
		c0,0.1,0.1,0.1,0.1,0.1c0,0.1-0.1,0.2-0.2,0.2c-0.1,0-0.1,0-0.2,0c-0.1,0-0.1,0-0.2,0c-0.2,0-0.6,0-1,0c-0.5,0-0.9,0.1-1.2,0.2
		c-0.1,0-0.1,0-0.1,0c0,0.1,0,0.1-0.1,0.1c0,0-0.1,0.1-0.1,0.1c-0.1,0-0.1,0-0.2-0.1c0,0-0.1-0.1-0.1-0.1c-0.1-0.5-0.2-1.1-0.2-1.9
		c0,0,0-0.1,0-0.1c0,0,0-0.1,0-0.1s0-0.1,0-0.1c0,0,0.1,0,0.1,0c0.1,0,0.1,0,0.2,0.1c0,0,0.1,0.1,0.1,0.1
		C111.3,30.5,112.1,30.4,112.9,30.4z M113.1,31.1c0-0.2-0.1-0.3-0.3-0.3c-0.5,0-0.9,0-1.3,0.1c-0.4,0.1-0.7,0.1-0.8,0.2
		c-0.1,0-0.1,0-0.1,0c0,0.4,0,0.7,0,0.9c0,0.1,0,0.1,0,0.2c0.2,0,0.5-0.1,0.7-0.1c0.3,0,0.5,0,0.8-0.1c0.4,0,0.7-0.1,0.8-0.1
		c0,0,0.1,0,0.2,0C113.1,31.7,113.1,31.4,113.1,31.1z M114,38c0,0.1-0.1,0.1-0.1,0.2c0,0-0.1,0-0.2,0c0,0-0.1,0-0.2-0.1
		c0-0.1-0.2-0.2-0.3-0.4c-0.2-0.2-0.4-0.4-0.7-0.6c-0.1-0.1-0.2-0.1-0.2-0.2c-0.1-0.1-0.1-0.1-0.1-0.1c0-0.1-0.1-0.1-0.1-0.1
		c0,0,0-0.1,0.1-0.2c0-0.1,0.1-0.1,0.1-0.1c0,0,0.1,0,0.1,0.1c0,0.1,0.2,0.1,0.3,0.3c0.2,0.1,0.4,0.3,0.6,0.6
		c0.2,0.2,0.4,0.4,0.4,0.4c0,0,0.1,0,0.1,0.1c0,0,0.1,0,0.1,0.1C114,37.8,114,37.9,114,38z"/>
</g>
<g>
</g>
<g>
</g>
<g>
</g>
<g>
</g>
<g>
</g>
<g>
</g>
<g>
</g>
<g>
</g>
<g>
</g>
<g>
</g>
<g>
</g>
<g>
</g>
</svg>
